<?xml version="1.0" encoding="UTF-8" standalone="no"?>
<!-- Created with Inkscape (http://www.inkscape.org/) -->

<svg
   width="76.954254mm"
   height="93.398659mm"
   viewBox="0 0 76.954254 93.398659"
   version="1.1"
   id="svg1219"
   sodipodi:docname="ai-friendly.svg"
   inkscape:version="1.2.2 (b0a8486, 2022-12-01)"
   xmlns:inkscape="http://www.inkscape.org/namespaces/inkscape"
   xmlns:sodipodi="http://sodipodi.sourceforge.net/DTD/sodipodi-0.dtd"
   xmlns="http://www.w3.org/2000/svg"
   xmlns:svg="http://www.w3.org/2000/svg">
  <sodipodi:namedview
     id="namedview1221"
     pagecolor="#505050"
     bordercolor="#eeeeee"
     borderopacity="1"
     inkscape:showpageshadow="0"
     inkscape:pageopacity="0"
     inkscape:pagecheckerboard="0"
     inkscape:deskcolor="#505050"
     inkscape:document-units="mm"
     showgrid="false"
     inkscape:zoom="0.67150344"
     inkscape:cx="285.92556"
     inkscape:cy="136.2614"
     inkscape:window-width="1366"
     inkscape:window-height="699"
     inkscape:window-x="0"
     inkscape:window-y="0"
     inkscape:window-maximized="1"
     inkscape:current-layer="layer1" />
  <defs
     id="defs1216" />
  <g
     inkscape:label="Layer 1"
     inkscape:groupmode="layer"
     id="layer1"
     transform="translate(-50.497115,-129.94447)">
    <g
       id="g1626"
       transform="translate(-47.647724,56.59161)">
      <path
         stroke="none"
         fill="#e53c58"
         d="m 163.64845,114.29747 -1.20386,0.59532 q -2.46062,0.96573 -4.89479,-0.0926 -2.44739,-1.05833 -3.42635,-3.53218 -0.96573,-2.46063 0.0926,-4.8948 1.05834,-2.44739 3.53219,-3.42635 2.46062,-0.96573 4.90802,0.0926 2.43417,1.05834 3.41313,3.53219 0.74083,1.87854 0.30427,3.74386 -0.14552,0.58208 -0.39688,1.16416 -0.78052,1.79917 -2.32833,2.81781 m 10.64948,14.24782 -0.30427,2.23573 q -1.91823,-1.66688 -4.52438,-2.10344 l 0.0397,-0.72761 q 2.6326,-0.44979 4.78896,0.59532 m -13.2424,14.48593 -2.76489,0.84667 -0.82021,0.0132 q -0.38365,-0.11906 -0.70115,-0.42333 -0.29104,-0.30427 -0.38364,-0.71438 -0.11907,-0.47625 -0.17198,-0.99219 -0.38365,-3.25437 1.69333,-5.86052 1.21708,-1.52135 2.8575,-2.27541 -0.0132,0.37041 0.15875,0.7276 2.02406,4.23333 0.13229,8.67833"
         id="path879"
         style="stroke-width:0.264583" />
      <path
         stroke="none"
         fill="#ff4362"
         d="m 161.05553,143.03122 q 1.89177,-4.445 -0.13229,-8.67833 -0.17198,-0.35719 -0.15875,-0.7276 l 0.0265,-0.25136 q 0.11906,-0.52916 0.51594,-0.85989 2.03729,-1.77271 4.27302,-2.79136 2.15635,-0.97896 3.88937,-1.0451 2.60615,0.43656 4.52438,2.10344 1.66687,2.12989 0.8202,6.29708 -0.85989,4.32594 -4.28625,8.70479 l -0.0529,0.0397 q -2.05052,2.56646 -5.3049,2.93687 h -0.0265 q -2.75166,0.33073 -5.00062,-1.09802 -0.37042,-0.21166 -0.5424,-0.59531 -0.21166,-0.37042 -0.17198,-0.79375 0.0132,-0.42333 0.26459,-0.76729 0.83343,-1.24354 1.3626,-2.47386 m 5.31813,-32.71572 q 8.77093,8.18885 7.92427,18.22979 -2.15636,-1.04511 -4.78896,-0.59532 0.4101,-7.47447 -5.86052,-13.6525 1.54781,-1.01864 2.32833,-2.81781 0.25136,-0.58208 0.39688,-1.16416"
         id="path881"
         style="stroke-width:0.264583" />
    </g>
    <g
       id="g1663"
       transform="translate(-61.544874,94.011436)">
      <path
         stroke="none"
         fill="#e53c58"
         d="m 158.78275,98.692979 h -0.18521 l -1.21708,-0.0926 q -2.02406,-0.357188 -3.55865,-1.891771 -1.97114,-1.971146 -1.97114,-4.7625 0,-2.791354 1.97114,-4.775729 1.98438,-1.971146 4.77573,-1.971146 2.79136,0 4.7625,1.971146 1.98438,1.984375 1.98438,4.775729 0,2.791354 -1.98438,4.7625 l -0.0529,0.05292 q -1.89177,1.865312 -4.52437,1.931458"
         id="path899"
         style="stroke-width:0.264583" />
      <path
         stroke="none"
         fill="#ff4362"
         d="m 158.78275,98.692979 q 2.6326,-0.06615 4.52437,-1.931458 1.64042,11.125729 -0.29104,21.351879 -0.29104,1.9976 -1.54781,3.08239 -1.34937,1.15094 0.55563,2.56646 3.66447,2.64583 8.3476,1.11125 0.4101,1.16417 0.4101,2.48708 v 0.0132 q 0,0.80698 -2.18281,1.37584 -2.19604,0.58208 -5.27844,0.58208 -3.08239,0 -5.27843,-0.58208 -2.18282,-0.56886 -2.18282,-1.37584 v -0.0132 q 0.3175,-5.11968 1.91823,-7.50093 2.42094,-10.09386 1.00542,-21.166671"
         id="path901"
         style="stroke-width:0.264583" />
      <path
         stroke="none"
         fill="#ff667f"
         d="m 163.01608,118.1134 0.50271,0.25135 q 2.88396,1.57427 5.08,3.77031 1.23031,1.23031 1.77271,2.73844 -4.68313,1.53458 -8.3476,-1.11125 -1.905,-1.41552 -0.55563,-2.56646 1.25677,-1.08479 1.54781,-3.08239"
         id="path903"
         style="stroke-width:0.264583" />
    </g>
    <g
       id="g1671"
       transform="matrix(-1,0,0,1,238.58058,93.384994)">
      <path
         stroke="none"
         fill="#e53c58"
         d="m 158.78275,98.692979 h -0.18521 l -1.21708,-0.0926 q -2.02406,-0.357188 -3.55865,-1.891771 -1.97114,-1.971146 -1.97114,-4.7625 0,-2.791354 1.97114,-4.775729 1.98438,-1.971146 4.77573,-1.971146 2.79136,0 4.7625,1.971146 1.98438,1.984375 1.98438,4.775729 0,2.791354 -1.98438,4.7625 l -0.0529,0.05292 q -1.89177,1.865312 -4.52437,1.931458"
         id="path1665"
         style="stroke-width:0.264583" />
      <path
         stroke="none"
         fill="#ff4362"
         d="m 158.78275,98.692979 q 2.6326,-0.06615 4.52437,-1.931458 1.64042,11.125729 -0.29104,21.351879 -0.29104,1.9976 -1.54781,3.08239 -1.34937,1.15094 0.55563,2.56646 3.66447,2.64583 8.3476,1.11125 0.4101,1.16417 0.4101,2.48708 v 0.0132 q 0,0.80698 -2.18281,1.37584 -2.19604,0.58208 -5.27844,0.58208 -3.08239,0 -5.27843,-0.58208 -2.18282,-0.56886 -2.18282,-1.37584 v -0.0132 q 0.3175,-5.11968 1.91823,-7.50093 2.42094,-10.09386 1.00542,-21.166671"
         id="path1667"
         style="stroke-width:0.264583" />
      <path
         stroke="none"
         fill="#ff667f"
         d="m 163.01608,118.1134 0.50271,0.25135 q 2.88396,1.57427 5.08,3.77031 1.23031,1.23031 1.77271,2.73844 -4.68313,1.53458 -8.3476,-1.11125 -1.905,-1.41552 -0.55563,-2.56646 1.25677,-1.08479 1.54781,-3.08239"
         id="path1669"
         style="stroke-width:0.264583" />
    </g>
    <g
       id="g1677"
       transform="matrix(-1,0,0,1,225.59621,55.824272)">
      <path
         stroke="none"
         fill="#e53c58"
         d="m 163.64845,114.29747 -1.20386,0.59532 q -2.46062,0.96573 -4.89479,-0.0926 -2.44739,-1.05833 -3.42635,-3.53218 -0.96573,-2.46063 0.0926,-4.8948 1.05834,-2.44739 3.53219,-3.42635 2.46062,-0.96573 4.90802,0.0926 2.43417,1.05834 3.41313,3.53219 0.74083,1.87854 0.30427,3.74386 -0.14552,0.58208 -0.39688,1.16416 -0.78052,1.79917 -2.32833,2.81781 m 10.64948,14.24782 -0.30427,2.23573 q -1.91823,-1.66688 -4.52438,-2.10344 l 0.0397,-0.72761 q 2.6326,-0.44979 4.78896,0.59532 m -13.2424,14.48593 -2.76489,0.84667 -0.82021,0.0132 q -0.38365,-0.11906 -0.70115,-0.42333 -0.29104,-0.30427 -0.38364,-0.71438 -0.11907,-0.47625 -0.17198,-0.99219 -0.38365,-3.25437 1.69333,-5.86052 1.21708,-1.52135 2.8575,-2.27541 -0.0132,0.37041 0.15875,0.7276 2.02406,4.23333 0.13229,8.67833"
         id="path1673"
         style="stroke-width:0.264583" />
      <path
         stroke="none"
         fill="#ff4362"
         d="m 161.05553,143.03122 q 1.89177,-4.445 -0.13229,-8.67833 -0.17198,-0.35719 -0.15875,-0.7276 l 0.0265,-0.25136 q 0.11906,-0.52916 0.51594,-0.85989 2.03729,-1.77271 4.27302,-2.79136 2.15635,-0.97896 3.88937,-1.0451 2.60615,0.43656 4.52438,2.10344 1.66687,2.12989 0.8202,6.29708 -0.85989,4.32594 -4.28625,8.70479 l -0.0529,0.0397 q -2.05052,2.56646 -5.3049,2.93687 h -0.0265 q -2.75166,0.33073 -5.00062,-1.09802 -0.37042,-0.21166 -0.5424,-0.59531 -0.21166,-0.37042 -0.17198,-0.79375 0.0132,-0.42333 0.26459,-0.76729 0.83343,-1.24354 1.3626,-2.47386 m 5.31813,-32.71572 q 8.77093,8.18885 7.92427,18.22979 -2.15636,-1.04511 -4.78896,-0.59532 0.4101,-7.47447 -5.86052,-13.6525 1.54781,-1.01864 2.32833,-2.81781 0.25136,-0.58208 0.39688,-1.16416"
         id="path1675"
         style="stroke-width:0.264583" />
    </g>
    <path
       stroke="none"
       fill="#ff667f"
       d="m 67.446661,154.02904 v -2.3151 q 0,-3.74386 2.645833,-6.38969 2.659063,-2.64583 6.402917,-2.64583 h 25.320629 q 3.74385,0 6.38968,2.64583 2.65907,2.64583 2.65907,6.38969 v 2.3151 q -0.11907,-3.53219 -2.65907,-6.05896 -2.64583,-2.64583 -6.38968,-2.64583 H 76.495411 q -3.743854,0 -6.402917,2.64583 -2.526771,2.52677 -2.645833,6.05896"
       id="path739"
       style="stroke-width:0.264583" />
    <path
       stroke="none"
       fill="#ff4362"
       d="m 67.446661,154.02904 q 0.119062,-3.53219 2.645833,-6.05896 2.659063,-2.64583 6.402917,-2.64583 h 25.320629 q 3.74385,0 6.38968,2.64583 2.54,2.52677 2.65907,6.05896 v 23.34948 q -0.11907,3.51896 -2.65907,6.04573 -2.64583,2.65906 -6.38968,2.65906 H 76.495411 q -3.743854,0 -6.402917,-2.65906 -2.526771,-2.52677 -2.645833,-6.04573 v -23.34948"
       id="path741"
       style="stroke-width:0.264583" />
    <g
       id="g1309"
       transform="translate(88.852204,-1.1778724)">
      <path
         stroke="none"
         fill="#ffffff"
         d="m 147.14443,151.69503 q 0,-1.75948 -1.23031,-3.00302 -1.24354,-1.23031 -3.00302,-1.23031 -1.74625,0 -2.97656,1.23031 -1.25677,1.24354 -1.25677,3.00302 0,1.75948 1.25677,2.98979 1.23031,1.24354 2.97656,1.24354 1.75948,0 3.00302,-1.24354 1.23031,-1.23031 1.23031,-2.98979 m 2.96334,-5.15938 q 0.59531,1.60073 0.44979,3.3073 -0.0661,0.76729 -0.29104,1.56104 -0.89959,3.29406 -3.91584,4.98739 -3.02947,1.70657 -6.38968,0.83344 -2.80459,-0.7276 -4.48469,-2.93687 l -0.52917,-0.75407 -0.0265,-0.0529 -0.0529,-0.11907 -0.0397,-0.0926 -0.0529,-0.17198 q -0.13229,-0.46302 0.0132,-1.01864 0.29104,-0.52917 0.79375,-1.09803 1.79917,-2.16958 5.25198,-3.63802 l 1.00542,-0.39687 q 2.88396,-1.04511 5.4901,-0.97896 1.05834,0.0132 1.85209,0.2249 0.51593,0.13229 0.92604,0.34395"
         id="path355"
         style="stroke-width:0.264583" />
      <path
         stroke="none"
         fill="#ff4362"
         d="m 147.14443,151.69503 q 0,1.75948 -1.23031,2.98979 -1.24354,1.24354 -3.00302,1.24354 -1.74625,0 -2.97656,-1.24354 -1.25677,-1.23031 -1.25677,-2.98979 0,-1.75948 1.25677,-3.00302 1.23031,-1.23031 2.97656,-1.23031 1.75948,0 3.00302,1.23031 1.23031,1.24354 1.23031,3.00302 m -6.82625,-0.13229 -0.0265,0.13229 q 0,1.07156 0.76729,1.83885 0.76729,0.7673 1.85208,0.7673 1.09802,0 1.87854,-0.7673 0.75407,-0.76729 0.75407,-1.83885 0,-1.09802 -0.75407,-1.86531 -0.78052,-0.75407 -1.87854,-0.75407 -0.62177,0 -1.13771,0.26459 -0.34396,-0.26459 -0.79375,-0.26459 -0.55562,0 -0.93927,0.38365 -0.39687,0.39688 -0.39687,0.93927 0,0.55563 0.39687,0.93927 l 0.27781,0.2249"
         id="path357"
         style="stroke-width:0.264583" />
      <path
         stroke="none"
         fill="#33291e"
         d="m 140.31818,151.56274 q 0.27782,0.17198 0.66146,0.17198 0.5424,0 0.9525,-0.39688 0.37042,-0.38364 0.37042,-0.93927 0,-0.54239 -0.37042,-0.93927 l -0.15875,-0.11906 q 0.51594,-0.26459 1.13771,-0.26459 1.09802,0 1.87854,0.75407 0.75407,0.76729 0.75407,1.86531 0,1.07156 -0.75407,1.83885 -0.78052,0.7673 -1.87854,0.7673 -1.08479,0 -1.85208,-0.7673 -0.76729,-0.76729 -0.76729,-1.83885 l 0.0265,-0.13229"
         id="path359"
         style="stroke-width:0.264583" />
      <path
         stroke="none"
         fill="#e3eeee"
         d="m 134.78839,152.07868 q 0.21167,-0.84667 1.01865,-1.905 1.5875,-2.11667 4.61698,-3.82323 3.01625,-1.69334 5.70177,-1.99761 2.47385,-0.30427 3.30729,0.78052 l 0.0662,0.11907 0.0264,0.0529 q 0.34396,0.60854 0.58209,1.23031 -0.41011,-0.21166 -0.92604,-0.34395 -0.79375,-0.21167 -1.85209,-0.2249 -2.60614,-0.0661 -5.4901,0.97896 l -1.00542,0.39687 q -3.45281,1.46844 -5.25198,3.63802 -0.50271,0.56886 -0.79375,1.09803"
         id="path361"
         style="stroke-width:0.264583" />
      <path
         stroke="none"
         fill="#000000"
         fill-opacity="0.101961"
         d="m 150.55756,149.84295 q 0.11906,1.40229 -0.29104,2.88395 -0.89959,3.29407 -3.91584,4.9874 -3.02947,1.70656 -6.38968,0.83344 -2.80459,-0.72761 -4.48469,-2.93688 l -0.52917,-0.75406 -0.0265,-0.0529 -0.0529,-0.11906 -0.0926,-0.26458 q -0.13229,-0.46302 0.0132,-1.01865 l 0.0397,-0.13229 0.0397,0.0926 0.0529,0.11907 0.0265,0.0529 0.52917,0.75407 q 1.6801,2.20927 4.48469,2.93687 3.36021,0.87313 6.38968,-0.83344 3.01625,-1.69333 3.91584,-4.98739 0.22489,-0.79375 0.29104,-1.56104"
         id="path363"
         style="stroke-width:0.264583" />
      <path
         stroke="none"
         fill="#ff6b83"
         d="m 140.31818,151.56274 -0.27781,-0.2249 q -0.39687,-0.38364 -0.39687,-0.93927 0,-0.54239 0.39687,-0.93927 0.38365,-0.38365 0.93927,-0.38365 0.44979,0 0.79375,0.26459 -0.38364,0.17198 -0.71437,0.48948 -0.71438,0.71437 -0.74084,1.73302"
         id="path365"
         style="stroke-width:0.264583" />
      <path
         stroke="none"
         fill="#4f3f2f"
         d="m 140.31818,151.56274 q 0.0265,-1.01865 0.74084,-1.73302 0.33073,-0.3175 0.71437,-0.48948 l 0.15875,0.11906 q 0.37042,0.39688 0.37042,0.93927 0,0.55563 -0.37042,0.93927 -0.4101,0.39688 -0.9525,0.39688 -0.38364,0 -0.66146,-0.17198"
         id="path367"
         style="stroke-width:0.264583" />
    </g>
    <g
       id="g1325"
       transform="matrix(-1,0,0,1,353.60661,-1.1270907)">
      <path
         stroke="none"
         fill="#ffffff"
         d="m 147.14443,151.69503 q 0,-1.75948 -1.23031,-3.00302 -1.24354,-1.23031 -3.00302,-1.23031 -1.74625,0 -2.97656,1.23031 -1.25677,1.24354 -1.25677,3.00302 0,1.75948 1.25677,2.98979 1.23031,1.24354 2.97656,1.24354 1.75948,0 3.00302,-1.24354 1.23031,-1.23031 1.23031,-2.98979 m 2.96334,-5.15938 q 0.59531,1.60073 0.44979,3.3073 -0.0661,0.76729 -0.29104,1.56104 -0.89959,3.29406 -3.91584,4.98739 -3.02947,1.70657 -6.38968,0.83344 -2.80459,-0.7276 -4.48469,-2.93687 l -0.52917,-0.75407 -0.0265,-0.0529 -0.0529,-0.11907 -0.0397,-0.0926 -0.0529,-0.17198 q -0.13229,-0.46302 0.0132,-1.01864 0.29104,-0.52917 0.79375,-1.09803 1.79917,-2.16958 5.25198,-3.63802 l 1.00542,-0.39687 q 2.88396,-1.04511 5.4901,-0.97896 1.05834,0.0132 1.85209,0.2249 0.51593,0.13229 0.92604,0.34395"
         id="path1311"
         style="stroke-width:0.264583" />
      <path
         stroke="none"
         fill="#ff4362"
         d="m 147.14443,151.69503 q 0,1.75948 -1.23031,2.98979 -1.24354,1.24354 -3.00302,1.24354 -1.74625,0 -2.97656,-1.24354 -1.25677,-1.23031 -1.25677,-2.98979 0,-1.75948 1.25677,-3.00302 1.23031,-1.23031 2.97656,-1.23031 1.75948,0 3.00302,1.23031 1.23031,1.24354 1.23031,3.00302 m -6.82625,-0.13229 -0.0265,0.13229 q 0,1.07156 0.76729,1.83885 0.76729,0.7673 1.85208,0.7673 1.09802,0 1.87854,-0.7673 0.75407,-0.76729 0.75407,-1.83885 0,-1.09802 -0.75407,-1.86531 -0.78052,-0.75407 -1.87854,-0.75407 -0.62177,0 -1.13771,0.26459 -0.34396,-0.26459 -0.79375,-0.26459 -0.55562,0 -0.93927,0.38365 -0.39687,0.39688 -0.39687,0.93927 0,0.55563 0.39687,0.93927 l 0.27781,0.2249"
         id="path1313"
         style="stroke-width:0.264583" />
      <path
         stroke="none"
         fill="#33291e"
         d="m 140.31818,151.56274 q 0.27782,0.17198 0.66146,0.17198 0.5424,0 0.9525,-0.39688 0.37042,-0.38364 0.37042,-0.93927 0,-0.54239 -0.37042,-0.93927 l -0.15875,-0.11906 q 0.51594,-0.26459 1.13771,-0.26459 1.09802,0 1.87854,0.75407 0.75407,0.76729 0.75407,1.86531 0,1.07156 -0.75407,1.83885 -0.78052,0.7673 -1.87854,0.7673 -1.08479,0 -1.85208,-0.7673 -0.76729,-0.76729 -0.76729,-1.83885 l 0.0265,-0.13229"
         id="path1315"
         style="stroke-width:0.264583" />
      <path
         stroke="none"
         fill="#e3eeee"
         d="m 134.78839,152.07868 q 0.21167,-0.84667 1.01865,-1.905 1.5875,-2.11667 4.61698,-3.82323 3.01625,-1.69334 5.70177,-1.99761 2.47385,-0.30427 3.30729,0.78052 l 0.0662,0.11907 0.0264,0.0529 q 0.34396,0.60854 0.58209,1.23031 -0.41011,-0.21166 -0.92604,-0.34395 -0.79375,-0.21167 -1.85209,-0.2249 -2.60614,-0.0661 -5.4901,0.97896 l -1.00542,0.39687 q -3.45281,1.46844 -5.25198,3.63802 -0.50271,0.56886 -0.79375,1.09803"
         id="path1317"
         style="stroke-width:0.264583" />
      <path
         stroke="none"
         fill="#000000"
         fill-opacity="0.101961"
         d="m 150.55756,149.84295 q 0.11906,1.40229 -0.29104,2.88395 -0.89959,3.29407 -3.91584,4.9874 -3.02947,1.70656 -6.38968,0.83344 -2.80459,-0.72761 -4.48469,-2.93688 l -0.52917,-0.75406 -0.0265,-0.0529 -0.0529,-0.11906 -0.0926,-0.26458 q -0.13229,-0.46302 0.0132,-1.01865 l 0.0397,-0.13229 0.0397,0.0926 0.0529,0.11907 0.0265,0.0529 0.52917,0.75407 q 1.6801,2.20927 4.48469,2.93687 3.36021,0.87313 6.38968,-0.83344 3.01625,-1.69333 3.91584,-4.98739 0.22489,-0.79375 0.29104,-1.56104"
         id="path1319"
         style="stroke-width:0.264583" />
      <path
         stroke="none"
         fill="#ff6b83"
         d="m 140.31818,151.56274 -0.27781,-0.2249 q -0.39687,-0.38364 -0.39687,-0.93927 0,-0.54239 0.39687,-0.93927 0.38365,-0.38365 0.93927,-0.38365 0.44979,0 0.79375,0.26459 -0.38364,0.17198 -0.71437,0.48948 -0.71438,0.71437 -0.74084,1.73302"
         id="path1321"
         style="stroke-width:0.264583" />
      <path
         stroke="none"
         fill="#4f3f2f"
         d="m 140.31818,151.56274 q 0.0265,-1.01865 0.74084,-1.73302 0.33073,-0.3175 0.71437,-0.48948 l 0.15875,0.11906 q 0.37042,0.39688 0.37042,0.93927 0,0.55563 -0.37042,0.93927 -0.4101,0.39688 -0.9525,0.39688 -0.38364,0 -0.66146,-0.17198"
         id="path1323"
         style="stroke-width:0.264583" />
    </g>
    <g
       id="g1362"
       transform="translate(111.8798,-27.686746)">
      <path
         stroke="none"
         fill="#33291e"
         d="m 112.77606,192.76524 1.01864,1.94469 q 0.17198,0.33073 0.5424,0.47625 0.35719,0.13229 0.71437,0 0.37042,-0.14552 0.5424,-0.47625 l 1.29646,-2.47386 q 2.73844,3.69094 2.6326,8.01688 -0.0265,0.27781 -0.18521,0.48948 -0.19843,0.23812 -0.48948,0.29104 -0.30427,0.0397 -0.56885,-0.10583 l -2.92365,-1.56105 -1.61395,1.93146 v -0.0794 q 0,-1.66688 -1.1774,-2.84427 -1.16417,-1.16417 -2.83104,-1.16417 -1.66688,0 -2.84427,1.16417 -1.16417,1.17739 -1.16417,2.84427 l 0.0132,0.29104 h -0.0132 l -0.4101,-0.10583 -0.33073,-0.30427 -1.23031,-2.15636 -2.7649,0.71438 -0.56885,-0.0397 q -0.30428,-0.14552 -0.423338,-0.42333 -0.105833,-0.27782 -0.01323,-0.56886 1.031878,-3.05594 3.016248,-5.59594 l 0.87313,1.68011 q 0.17198,0.33073 0.54239,0.47625 0.35719,0.13229 0.71438,0 0.37042,-0.14552 0.54239,-0.47625 l 1.36261,-2.60615 0.0926,-0.21166 0.71438,0.68791 2.34156,-1.50812 q 0.25135,-0.17198 0.5424,-0.14552 0.30427,0.0397 0.52916,0.25135 l 1.52136,1.5875"
         id="path433"
         style="stroke-width:0.264583" />
      <path
         stroke="none"
         fill="#ffffff"
         d="m 112.77606,192.76524 0.0529,0.0529 1.97115,-1.74625 q 0.17198,-0.14552 0.38365,-0.19844 h 0.3175 l 0.11906,0.0265 q 0.21166,0.0661 0.38364,0.25135 l 0.88636,1.08479 -1.29646,2.47386 q -0.17198,0.33073 -0.5424,0.47625 -0.35718,0.13229 -0.71437,0 -0.37042,-0.14552 -0.5424,-0.47625 l -1.01864,-1.94469 m -5.64886,-0.87312 -0.0926,0.21166 -1.36261,2.60615 q -0.17197,0.33073 -0.54239,0.47625 -0.35719,0.13229 -0.71438,0 -0.37041,-0.14552 -0.54239,-0.47625 l -0.87313,-1.68011 q 0.64823,-0.84666 1.40229,-1.64041 l 0.50271,-0.50271 q 0.18521,-0.17198 0.44979,-0.21167 l 0.1323,-0.0132 q 0.35718,0 0.60854,0.2249 l 1.03187,1.00542"
         id="path435"
         style="stroke-width:0.264583" />
      <path
         stroke="none"
         fill="#ff4362"
         d="m 105.73814,201.50972 -0.0132,-0.29104 q 0,-1.66688 1.16417,-2.84427 1.17739,-1.16417 2.84427,-1.16417 1.66687,0 2.83104,1.16417 1.1774,1.17739 1.1774,2.84427 v 0.0794 l -0.15875,0.18521 q -0.21167,0.23813 -0.52917,0.27781 -0.3175,0.0662 -0.58208,-0.11906 l -3.36021,-2.14312 -2.95011,1.86531 q -0.19843,0.13229 -0.42333,0.14552"
         id="path437"
         style="stroke-width:0.264583" />
    </g>
    <g
       id="g1448"
       transform="translate(-74.711933,18.326364)">
      <path
         stroke="none"
         fill="#ffffff"
         d="m 181.00508,142.76049 q 0,-2.67229 -1.87855,-4.56406 -1.89177,-1.89177 -4.57729,-1.89177 -2.67229,0 -4.55083,1.89177 -1.905,1.89177 -1.905,4.56406 0,2.68552 1.905,4.56406 1.87854,1.89177 4.55083,1.89177 2.68552,0 4.57729,-1.89177 1.87855,-1.87854 1.87855,-4.56406 m -14.89605,0.66146 -0.0264,-0.66146 q 0,-3.50573 2.47385,-5.97958 2.47385,-2.48709 5.99281,-2.48709 3.50573,0 5.99281,2.48709 2.47386,2.47385 2.47386,5.97958 l -0.0132,0.66146 q -0.2249,3.09562 -2.46063,5.33135 -2.48708,2.47386 -5.99281,2.47386 -3.51896,0 -5.99281,-2.47386 -2.23573,-2.23573 -2.4474,-5.33135"
         id="path331"
         style="stroke-width:0.264583" />
      <path
         stroke="none"
         fill="#ff4362"
         d="m 170.56726,142.57528 -0.0132,0.18521 q 0,1.65365 1.16417,2.81781 1.1774,1.1774 2.83104,1.1774 1.65365,0 2.84427,-1.1774 1.15094,-1.16416 1.15094,-2.81781 0,-1.66688 -1.15094,-2.83104 -1.19062,-1.16417 -2.84427,-1.16417 -0.9525,0 -1.74625,0.39688 -0.52916,-0.39688 -1.21708,-0.39688 -0.84667,0 -1.44198,0.59531 -0.59531,0.59532 -0.59531,1.44198 0,0.84667 0.59531,1.44198 l 0.42333,0.33073 m 10.43782,0.18521 q 0,2.68552 -1.87855,4.56406 -1.89177,1.89177 -4.57729,1.89177 -2.67229,0 -4.55083,-1.89177 -1.905,-1.87854 -1.905,-4.56406 0,-2.67229 1.905,-4.56406 1.87854,-1.89177 4.55083,-1.89177 2.68552,0 4.57729,1.89177 1.87855,1.89177 1.87855,4.56406"
         id="path333"
         style="stroke-width:0.264583" />
      <path
         stroke="none"
         fill="#33291e"
         d="m 172.80299,139.16216 q 0.79375,-0.39688 1.74625,-0.39688 1.65365,0 2.84427,1.16417 1.15094,1.16416 1.15094,2.83104 0,1.65365 -1.15094,2.81781 -1.19062,1.1774 -2.84427,1.1774 -1.65364,0 -2.83104,-1.1774 -1.16417,-1.16416 -1.16417,-2.81781 l 0.0132,-0.18521 q 0.4498,0.26458 1.01865,0.26458 0.84667,0 1.45521,-0.59531 0.58208,-0.59531 0.58208,-1.44198 0,-0.84666 -0.58208,-1.44198 l -0.23813,-0.19843"
         id="path335"
         style="stroke-width:0.264583" />
      <path
         stroke="none"
         fill="#000000"
         fill-opacity="0.101961"
         d="m 183.00268,143.42195 0.0132,0.66146 q 0,3.51895 -2.47386,5.99281 -2.48708,2.47385 -5.99281,2.47385 -3.51896,0 -5.99281,-2.47385 -2.47385,-2.47386 -2.47385,-5.99281 l 0.0264,-0.66146 q 0.21167,3.09562 2.4474,5.33135 2.47385,2.47386 5.99281,2.47386 3.50573,0 5.99281,-2.47386 2.23573,-2.23573 2.46063,-5.33135"
         id="path337"
         style="stroke-width:0.264583" />
      <path
         stroke="none"
         fill="#4f3f2f"
         d="m 172.80299,139.16216 0.23813,0.19843 q 0.58208,0.59532 0.58208,1.44198 0,0.84667 -0.58208,1.44198 -0.60854,0.59531 -1.45521,0.59531 -0.56885,0 -1.01865,-0.26458 0.0529,-1.54781 1.15094,-2.64583 0.50271,-0.48948 1.08479,-0.76729"
         id="path339"
         style="stroke-width:0.264583" />
      <path
         stroke="none"
         fill="#ff6b83"
         d="m 172.80299,139.16216 q -0.58208,0.27781 -1.08479,0.76729 -1.09802,1.09802 -1.15094,2.64583 l -0.42333,-0.33073 q -0.59531,-0.59531 -0.59531,-1.44198 0,-0.84666 0.59531,-1.44198 0.59531,-0.59531 1.44198,-0.59531 0.68792,0 1.21708,0.39688"
         id="path341"
         style="stroke-width:0.264583" />
    </g>
    <g
       id="g1521"
       transform="translate(43.46299,-11.823386)">
      <path
         stroke="none"
         fill="#ffffff"
         d="m 154.92174,189.63908 q -0.33073,0.29104 -0.83344,0.42333 -3.62479,0.9525 -7.18344,0.0661 -0.56885,-0.15875 -0.92604,-0.48948 1.89177,-2.10344 4.47146,-2.10344 2.59292,0 4.47146,2.10344"
         id="path427"
         style="stroke-width:0.264583" />
      <path
         stroke="none"
         fill="#33291e"
         d="m 154.92174,189.63908 0.19844,0.26458 q 1.94468,2.35479 1.94468,5.715 v 0.0529 q 0,1.44198 -1.94468,2.46062 l -0.43657,0.23813 q -1.82562,-0.99219 -4.23333,-0.99219 -2.39448,0 -4.2201,0.99219 l -0.46302,-0.23813 q -1.91823,-1.01864 -1.93146,-2.46062 v -0.0529 q 0,-3.36021 1.93146,-5.715 l 0.21166,-0.26458 q 0.35719,0.33073 0.92604,0.48948 3.55865,0.88635 7.18344,-0.0661 0.50271,-0.13229 0.83344,-0.42333"
         id="path429"
         style="stroke-width:0.264583" />
      <path
         stroke="none"
         fill="#ff4362"
         d="m 146.23018,198.37033 q 1.82562,-0.99219 4.2201,-0.99219 2.40771,0 4.23333,0.99219 -1.82562,0.80698 -4.23333,0.80698 -2.43417,0 -4.2201,-0.80698"
         id="path431"
         style="stroke-width:0.264583" />
    </g>
    <g
       id="g1462"
       transform="translate(-95.636313,17.932117)">
      <path
         stroke="none"
         fill="#ffffff"
         d="m 181.00508,142.76049 q 0,-2.67229 -1.87855,-4.56406 -1.89177,-1.89177 -4.57729,-1.89177 -2.67229,0 -4.55083,1.89177 -1.905,1.89177 -1.905,4.56406 0,2.68552 1.905,4.56406 1.87854,1.89177 4.55083,1.89177 2.68552,0 4.57729,-1.89177 1.87855,-1.87854 1.87855,-4.56406 m -14.89605,0.66146 -0.0264,-0.66146 q 0,-3.50573 2.47385,-5.97958 2.47385,-2.48709 5.99281,-2.48709 3.50573,0 5.99281,2.48709 2.47386,2.47385 2.47386,5.97958 l -0.0132,0.66146 q -0.2249,3.09562 -2.46063,5.33135 -2.48708,2.47386 -5.99281,2.47386 -3.51896,0 -5.99281,-2.47386 -2.23573,-2.23573 -2.4474,-5.33135"
         id="path1450"
         style="stroke-width:0.264583" />
      <path
         stroke="none"
         fill="#ff4362"
         d="m 170.56726,142.57528 -0.0132,0.18521 q 0,1.65365 1.16417,2.81781 1.1774,1.1774 2.83104,1.1774 1.65365,0 2.84427,-1.1774 1.15094,-1.16416 1.15094,-2.81781 0,-1.66688 -1.15094,-2.83104 -1.19062,-1.16417 -2.84427,-1.16417 -0.9525,0 -1.74625,0.39688 -0.52916,-0.39688 -1.21708,-0.39688 -0.84667,0 -1.44198,0.59531 -0.59531,0.59532 -0.59531,1.44198 0,0.84667 0.59531,1.44198 l 0.42333,0.33073 m 10.43782,0.18521 q 0,2.68552 -1.87855,4.56406 -1.89177,1.89177 -4.57729,1.89177 -2.67229,0 -4.55083,-1.89177 -1.905,-1.87854 -1.905,-4.56406 0,-2.67229 1.905,-4.56406 1.87854,-1.89177 4.55083,-1.89177 2.68552,0 4.57729,1.89177 1.87855,1.89177 1.87855,4.56406"
         id="path1452"
         style="stroke-width:0.264583" />
      <path
         stroke="none"
         fill="#33291e"
         d="m 172.80299,139.16216 q 0.79375,-0.39688 1.74625,-0.39688 1.65365,0 2.84427,1.16417 1.15094,1.16416 1.15094,2.83104 0,1.65365 -1.15094,2.81781 -1.19062,1.1774 -2.84427,1.1774 -1.65364,0 -2.83104,-1.1774 -1.16417,-1.16416 -1.16417,-2.81781 l 0.0132,-0.18521 q 0.4498,0.26458 1.01865,0.26458 0.84667,0 1.45521,-0.59531 0.58208,-0.59531 0.58208,-1.44198 0,-0.84666 -0.58208,-1.44198 l -0.23813,-0.19843"
         id="path1454"
         style="stroke-width:0.264583" />
      <path
         stroke="none"
         fill="#000000"
         fill-opacity="0.101961"
         d="m 183.00268,143.42195 0.0132,0.66146 q 0,3.51895 -2.47386,5.99281 -2.48708,2.47385 -5.99281,2.47385 -3.51896,0 -5.99281,-2.47385 -2.47385,-2.47386 -2.47385,-5.99281 l 0.0264,-0.66146 q 0.21167,3.09562 2.4474,5.33135 2.47385,2.47386 5.99281,2.47386 3.50573,0 5.99281,-2.47386 2.23573,-2.23573 2.46063,-5.33135"
         id="path1456"
         style="stroke-width:0.264583" />
      <path
         stroke="none"
         fill="#4f3f2f"
         d="m 172.80299,139.16216 0.23813,0.19843 q 0.58208,0.59532 0.58208,1.44198 0,0.84667 -0.58208,1.44198 -0.60854,0.59531 -1.45521,0.59531 -0.56885,0 -1.01865,-0.26458 0.0529,-1.54781 1.15094,-2.64583 0.50271,-0.48948 1.08479,-0.76729"
         id="path1458"
         style="stroke-width:0.264583" />
      <path
         stroke="none"
         fill="#ff6b83"
         d="m 172.80299,139.16216 q -0.58208,0.27781 -1.08479,0.76729 -1.09802,1.09802 -1.15094,2.64583 l -0.42333,-0.33073 q -0.59531,-0.59531 -0.59531,-1.44198 0,-0.84666 0.59531,-1.44198 0.59531,-0.59531 1.44198,-0.59531 0.68792,0 1.21708,0.39688"
         id="path1460"
         style="stroke-width:0.264583" />
    </g>
    <path
       stroke="none"
       fill="#33291e"
       d="m 155.68694,188.17455 q 2.30187,-2.30188 5.55625,-2.30188 3.25437,0 5.54302,2.30188 0.68791,0.68791 1.17739,1.48166 0.21167,0.34396 0.1323,0.74084 -0.10584,0.39687 -0.46303,0.60854 -0.35718,0.21166 -0.74083,0.13229 -0.39687,-0.0926 -0.62177,-0.44979 -0.38365,-0.60854 -0.89958,-1.11125 -1.70657,-1.71979 -4.1275,-1.71979 -2.4474,0 -4.15396,1.71979 -0.52917,0.50271 -0.87313,1.09802 -0.21166,0.34396 -0.62177,0.44979 -0.39687,0.0926 -0.74083,-0.10583 -0.35719,-0.21167 -0.44979,-0.60854 -0.10583,-0.39688 0.10583,-0.74084 0.46302,-0.80698 1.1774,-1.49489"
       id="path293"
       style="stroke-width:0.264583" />
    <g
       id="g1558"
       transform="translate(-23.918547,26.290283)">
      <path
         stroke="none"
         fill="#33291e"
         d="m 120.18647,147.48473 h 1.04511 q 0.44979,0 0.80698,0.27781 0.34396,0.2249 0.50271,0.62177 0.17197,0.42334 0.0661,0.83344 -0.635,2.4474 -2.48708,4.3524 l -0.88636,0.80697 q -2.50031,-1.46843 -5.83406,-1.46843 -3.33375,0 -5.86052,1.49489 l -0.92604,-0.83343 q -1.8124,-1.94469 -2.4474,-4.3524 -0.0794,-0.4101 0.10584,-0.83344 0.10583,-0.39687 0.48948,-0.62177 0.33072,-0.27781 0.76729,-0.27781 h 1.05833 v 1.21708 q 0,1.38907 1.91823,1.79917 4.89479,0.9525 9.86896,-0.0529 1.81239,-0.35718 1.81239,-1.74625 v -1.21708"
         id="path381"
         style="stroke-width:0.264583" />
      <path
         stroke="none"
         fill="#ffffff"
         d="m 120.18647,147.48473 v 1.21708 q 0,1.38907 -1.81239,1.74625 -4.97417,1.00542 -9.86896,0.0529 -1.91823,-0.4101 -1.91823,-1.79917 v -1.21708 h 13.59958"
         id="path383"
         style="stroke-width:0.264583" />
      <path
         stroke="none"
         fill="#ff4362"
         d="m 119.23397,154.37712 q -2.50031,2.10344 -5.87375,2.10344 -3.32052,0 -5.82083,-2.07698 2.52677,-1.49489 5.86052,-1.49489 3.33375,0 5.83406,1.46843"
         id="path385"
         style="stroke-width:0.264583" />
    </g>
    <g
       id="g1589"
       transform="translate(-71.935571,-1.1312051)">
      <path
         stroke="none"
         fill="#ff4362"
         d="m 171.68008,135.17672 q -0.18521,-0.51594 -0.18521,-1.09802 0,-1.24354 0.87313,-2.11667 0.88635,-0.88635 2.11666,-0.88635 1.24354,0 2.1299,0.88635 0.87312,0.87313 0.87312,2.11667 0,1.24354 -0.87312,2.11666 -0.88636,0.88636 -2.1299,0.88636 -0.635,0 -1.20385,-0.23813 -0.48948,-0.22489 -0.91281,-0.64823 -0.46302,-0.44979 -0.68792,-1.01864 m -0.93927,8.61218 0.29104,0.15875 q 0.60854,0.42334 0.60854,1.03188 0,0.59531 -0.60854,1.01865 -0.62177,0.42333 -1.4949,0.42333 -0.85989,0 -1.48166,-0.42333 -0.62177,-0.42334 -0.62177,-1.01865 0,-0.60854 0.62177,-1.03188 0.18521,-0.13229 0.39687,-0.21166 l 0.0132,0.64823 q 0.0132,0.47625 0.35719,0.79375 0.33073,0.33073 0.80698,0.3175 0.47625,-0.0132 0.80698,-0.35719 0.33073,-0.33073 0.3175,-0.80698 l -0.0132,-0.5424"
         id="path563"
         style="stroke-width:0.264583" />
      <path
         stroke="none"
         fill="#4f3f2f"
         d="m 170.74081,143.7889 0.0132,0.5424 q 0.0132,0.47625 -0.3175,0.80698 -0.33073,0.34396 -0.80698,0.35719 -0.47625,0.0132 -0.80698,-0.3175 -0.34396,-0.3175 -0.35719,-0.79375 l -0.0132,-0.64823 q 0.0662,-5.37104 3.22792,-8.55927 0.2249,0.56885 0.68792,1.01864 0.42333,0.42334 0.91281,0.64823 -2.48708,2.59292 -2.54,6.94531"
         id="path565"
         style="stroke-width:0.264583" />
    </g>
    <g
       id="g1595"
       transform="matrix(-1,0,0,1,250.48475,-1.1312051)">
      <path
         stroke="none"
         fill="#ff4362"
         d="m 171.68008,135.17672 q -0.18521,-0.51594 -0.18521,-1.09802 0,-1.24354 0.87313,-2.11667 0.88635,-0.88635 2.11666,-0.88635 1.24354,0 2.1299,0.88635 0.87312,0.87313 0.87312,2.11667 0,1.24354 -0.87312,2.11666 -0.88636,0.88636 -2.1299,0.88636 -0.635,0 -1.20385,-0.23813 -0.48948,-0.22489 -0.91281,-0.64823 -0.46302,-0.44979 -0.68792,-1.01864 m -0.93927,8.61218 0.29104,0.15875 q 0.60854,0.42334 0.60854,1.03188 0,0.59531 -0.60854,1.01865 -0.62177,0.42333 -1.4949,0.42333 -0.85989,0 -1.48166,-0.42333 -0.62177,-0.42334 -0.62177,-1.01865 0,-0.60854 0.62177,-1.03188 0.18521,-0.13229 0.39687,-0.21166 l 0.0132,0.64823 q 0.0132,0.47625 0.35719,0.79375 0.33073,0.33073 0.80698,0.3175 0.47625,-0.0132 0.80698,-0.35719 0.33073,-0.33073 0.3175,-0.80698 l -0.0132,-0.5424"
         id="path1591"
         style="stroke-width:0.264583" />
      <path
         stroke="none"
         fill="#4f3f2f"
         d="m 170.74081,143.7889 0.0132,0.5424 q 0.0132,0.47625 -0.3175,0.80698 -0.33073,0.34396 -0.80698,0.35719 -0.47625,0.0132 -0.80698,-0.3175 -0.34396,-0.3175 -0.35719,-0.79375 l -0.0132,-0.64823 q 0.0662,-5.37104 3.22792,-8.55927 0.2249,0.56885 0.68792,1.01864 0.42333,0.42334 0.91281,0.64823 -2.48708,2.59292 -2.54,6.94531"
         id="path1593"
         style="stroke-width:0.264583" />
    </g>
    <path
       stroke="none"
       fill="#33291e"
       d="m 124.27056,115.12127 q -0.3175,0.30427 -0.75406,0.30427 -0.43656,0 -0.74083,-0.30427 -0.3175,-0.3175 -0.3175,-0.75406 0,-0.43657 0.3175,-0.74084 l 2.42093,-2.43416 -2.42093,-2.42094 q -0.3175,-0.3175 -0.3175,-0.75406 0,-0.43657 0.3175,-0.74084 0.30427,-0.3175 0.74083,-0.3175 0.43656,0 0.75406,0.3175 l 2.42094,2.42094 2.43417,-2.42094 q 0.30427,-0.3175 0.74083,-0.3175 0.43656,0 0.75406,0.3175 0.30427,0.30427 0.30427,0.74084 0,0.43656 -0.30427,0.75406 l -2.43416,2.42094 2.43416,2.43416 q 0.30427,0.30427 0.30427,0.74084 0,0.43656 -0.30427,0.75406 -0.3175,0.30427 -0.75406,0.30427 -0.43656,0 -0.74083,-0.30427 l -2.43417,-2.43417 -2.42094,2.43417"
       id="path297"
       style="stroke-width:0.264583" />
    <path
       stroke="none"
       fill="#33291e"
       d="m 106.11516,115.37192 q -0.3175,0.30427 -0.75406,0.30427 -0.43656,0 -0.74083,-0.30427 -0.3175,-0.3175 -0.3175,-0.75406 0,-0.43657 0.3175,-0.74084 l 2.42093,-2.43416 -2.42093,-2.42094 q -0.3175,-0.3175 -0.3175,-0.75406 0,-0.43657 0.3175,-0.74084 0.30427,-0.3175 0.74083,-0.3175 0.43656,0 0.75406,0.3175 l 2.42094,2.42094 2.43417,-2.42094 q 0.30427,-0.3175 0.74083,-0.3175 0.43656,0 0.75406,0.3175 0.30427,0.30427 0.30427,0.74084 0,0.43656 -0.30427,0.75406 l -2.43416,2.42094 2.43416,2.43416 q 0.30427,0.30427 0.30427,0.74084 0,0.43656 -0.30427,0.75406 -0.3175,0.30427 -0.75406,0.30427 -0.43656,0 -0.74083,-0.30427 l -2.43417,-2.43417 -2.42094,2.43417"
       id="path1701"
       style="stroke-width:0.264583" />
    <g
       id="g2207"
       transform="translate(-84.70885,9.2915916)">
      <path
         stroke="none"
         fill="#33291e"
         d="m 169.26614,140.76883 -0.0132,0.0794 q -0.0926,0.34396 -0.4101,0.5424 -0.30427,0.19844 -0.66146,0.14552 -4.85511,-0.76729 -10.35844,1.73302 -0.29104,0.13229 -0.58208,0.0794 -0.30427,-0.0794 -0.52917,-0.29105 -0.19844,-0.23812 -0.21167,-0.54239 l -0.17198,-2.01083 -0.0132,-0.0397 q -0.0265,-0.2249 0.0661,-0.42334 0.0794,-0.21166 0.23813,-0.35718 4.49791,-3.92907 9.68375,-3.7174 l 0.46302,0.13229 q 0.21166,0.13229 0.33073,0.35719 l 2.06375,3.7174 q 0.14552,0.26458 0.10583,0.59531"
         id="path217"
         style="stroke-width:0.264583" />
      <path
         stroke="none"
         fill="#000000"
         fill-opacity="0.0980392"
         d="m 169.26614,140.76883 v 0.25135 0.26459 0.26458 l -0.0132,0.35719 q -0.0926,0.34396 -0.4101,0.54239 -0.30427,0.19844 -0.66146,0.14552 -4.85511,-0.76729 -10.35844,1.73302 -0.29104,0.1323 -0.58208,0.0794 -0.30427,-0.0794 -0.52917,-0.29104 -0.19844,-0.23813 -0.21167,-0.5424 l -0.1852,-2.05052 q -0.0132,-0.11906 0.0132,-0.22489 l -0.0132,-0.0397 q -0.0132,-0.11906 0.0132,-0.2249 l -0.0132,-0.0397 q -0.0132,-0.11906 0.0132,-0.22489 l -0.0132,-0.0397 q -0.0132,-0.11906 0.0132,-0.22489 l 0.17198,2.01083 q 0.0132,0.30427 0.21167,0.54239 0.2249,0.21167 0.52917,0.29105 0.29104,0.0529 0.58208,-0.0794 5.50333,-2.50031 10.35844,-1.73302 0.35719,0.0529 0.66146,-0.14552 0.3175,-0.19844 0.4101,-0.5424 l 0.0132,-0.0794"
         id="path219"
         style="stroke-width:0.264583" />
    </g>
    <g
       id="g2213"
       transform="matrix(-1,0,0,1,264.41942,9.8471802)">
      <path
         stroke="none"
         fill="#33291e"
         d="m 169.26614,140.76883 -0.0132,0.0794 q -0.0926,0.34396 -0.4101,0.5424 -0.30427,0.19844 -0.66146,0.14552 -4.85511,-0.76729 -10.35844,1.73302 -0.29104,0.13229 -0.58208,0.0794 -0.30427,-0.0794 -0.52917,-0.29105 -0.19844,-0.23812 -0.21167,-0.54239 l -0.17198,-2.01083 -0.0132,-0.0397 q -0.0265,-0.2249 0.0661,-0.42334 0.0794,-0.21166 0.23813,-0.35718 4.49791,-3.92907 9.68375,-3.7174 l 0.46302,0.13229 q 0.21166,0.13229 0.33073,0.35719 l 2.06375,3.7174 q 0.14552,0.26458 0.10583,0.59531"
         id="path2209"
         style="stroke-width:0.264583" />
      <path
         stroke="none"
         fill="#000000"
         fill-opacity="0.0980392"
         d="m 169.26614,140.76883 v 0.25135 0.26459 0.26458 l -0.0132,0.35719 q -0.0926,0.34396 -0.4101,0.54239 -0.30427,0.19844 -0.66146,0.14552 -4.85511,-0.76729 -10.35844,1.73302 -0.29104,0.1323 -0.58208,0.0794 -0.30427,-0.0794 -0.52917,-0.29104 -0.19844,-0.23813 -0.21167,-0.5424 l -0.1852,-2.05052 q -0.0132,-0.11906 0.0132,-0.22489 l -0.0132,-0.0397 q -0.0132,-0.11906 0.0132,-0.2249 l -0.0132,-0.0397 q -0.0132,-0.11906 0.0132,-0.22489 l -0.0132,-0.0397 q -0.0132,-0.11906 0.0132,-0.22489 l 0.17198,2.01083 q 0.0132,0.30427 0.21167,0.54239 0.2249,0.21167 0.52917,0.29105 0.29104,0.0529 0.58208,-0.0794 5.50333,-2.50031 10.35844,-1.73302 0.35719,0.0529 0.66146,-0.14552 0.3175,-0.19844 0.4101,-0.5424 l 0.0132,-0.0794"
         id="path2211"
         style="stroke-width:0.264583" />
    </g>
  </g>
</svg>
